# xmcd CD database file
#
# Track frame offsets:
#	150
#	13710
#	27605
#	41626
#	57684
#	71336
#	87286
#	105779
#	122911
#	148718
#	163810
#	178951
#	199443
#	216430
#	231150
#	244359
#	258323
#	270990
#	285220
#	299278
#	312348
#	328173
#	338939
#
# Disc length: 4731 seconds
#
# Revision: 0
# Processed by: cddbd v1.5.2PL0 Copyright (c) Steve Scherf et al.
# Submitted via: CDex 1.51
#
DISCID=6b127917
DTITLE=Billy Holiday - Billy Holiday
DYEAR=1940
DGENRE=Jazz
TTITLE0=Barbra Streisand - My Man
TTITLE1=Billy Holiday - All Of Me
TTITLE2=Billie Holliday - April In Paris
TTITLE3=Billie Holliday - Blue moon
TTITLE4=Billy Holiday - God Bless The Child
TTITLE5=Billy Holiday - I'll Be Seeing You
TTITLE6=Billie Holiday - It Had to Be You
TTITLE7=billy holiday - lady sings the blues
TTITLE8=Billy Holiday - One For My Baby
TTITLE9=Billy Holiday - Pennies From Heaven
TTITLE10=Billy Holiday - Say it isn't so
TTITLE11=Billy Holiday - Stars Fell on Alabama
TTITLE12=billy holiday - stormy weather
TTITLE13=Billy Holiday - Strange Fruit
TTITLE14=Billy Holliday - Summertime
TTITLE15=Billy Holiday - The Man I Love
TTITLE16=Billie Holiday - The Very Thought Of You
TTITLE17=Billy Holiday - They Can't Take That Away From
TTITLE18=Billie Holiday - What Is This Thing Called Love
TTITLE19=billy holiday - when your smiling
TTITLE20=billy holiday and bb king - stormy blues
TTITLE21=Louis Armstrong, Billy Holiday - Honeysuckle Rose
TTITLE22=Billy Holiday and Ella Fitzger - Solitude
EXTD=YEAR: 1940
EXTT0=
EXTT1=
EXTT2=
EXTT3=
EXTT4=
EXTT5=
EXTT6=
EXTT7=
EXTT8=
EXTT9=
EXTT10=
EXTT11=
EXTT12=
EXTT13=
EXTT14=
EXTT15=
EXTT16=
EXTT17=
EXTT18=
EXTT19=
EXTT20=
EXTT21=
EXTT22=
PLAYORDER=
